<svg xmlns="http://www.w3.org/2000/svg" viewBox="0 0 36 36">
    <defs>
        <style>
            .cls-1{fill:#fff}
        </style>
    </defs>
    <path id="icon_vk" d="M23.285 36h-10.57C2.6 36 0 33.4 0 23.285v-10.57C0 2.6 2.6 0 12.715 0h10.57C33.4 0 36 2.6 36 12.715v10.57C36 33.319 33.4 36 23.285 36zM12.715 1.532c-9.191 0-11.183 1.991-11.183 11.183v10.57c0 9.191 1.991 11.183 11.183 11.183h10.57c9.191 0 11.183-1.991 11.183-11.183v-10.57c0-9.191-1.991-11.183-11.183-11.183zM28.57 26.119h-2.527c-1 0-1.532-.613-2.3-1.455-.306-.306-.689-.766-1.149-1.226a5.083 5.083 0 0 0-1.838-1.379v2.374C20.757 26.2 19 26.2 18.23 26.2c-3.064 0-6.128-1.838-8.272-4.9-3.064-4.3-4.137-7.819-4.137-8.738a1.414 1.414 0 0 1 1.609-1.456h2.527c1.149 0 1.532.689 1.838 1.455a17.964 17.964 0 0 0 3.14 5.9v-3.525a2.336 2.336 0 0 0-.536-1.379 1.552 1.552 0 0 1-.46-1.072 1.31 1.31 0 0 1 1.379-1.3H19.3c.536 0 1.455.23 1.455 1.685v4.6l.23-.23a19.155 19.155 0 0 0 2.911-4.9 1.922 1.922 0 0 1 1.838-1.226h2.528a1.481 1.481 0 0 1 1.3.536 1.5 1.5 0 0 1 .153 1.379c-.306 1.532-3.14 5.515-3.447 5.974a.267.267 0 0 0-.077.153l.077.077c.153.153.383.46.613.689a14.7 14.7 0 0 1 1.072 1.149 9.487 9.487 0 0 1 2.221 3.217 1.622 1.622 0 0 1-.153 1.455 3.409 3.409 0 0 1-1.451.376zm-7.97-5.668c.536 0 1.379.23 2.987 1.838.536.536.919 1 1.226 1.3.689.766.843.919 1.149.919h2.681v-.077a12.566 12.566 0 0 0-1.991-2.681 12.2 12.2 0 0 0-1-1 3.6 3.6 0 0 1-.766-.843 1.494 1.494 0 0 1 0-1.991c1.149-1.609 3.064-4.519 3.294-5.515h-2.52a.354.354 0 0 0-.383.23A24.288 24.288 0 0 1 22.06 18a2.348 2.348 0 0 1-1.76 1c-.536 0-1.149-.46-1.149-1.455v-5.136h-3.6a3.587 3.587 0 0 1 .843 2.221v3.753c0 .46 0 1.685-1.226 1.685-1.609 0-3.906-4.289-4.9-7.2-.153-.46-.153-.46-.383-.46H7.353c.077.689.919 3.677 3.83 7.813 1.838 2.681 4.519 4.289 7.047 4.289a5.6 5.6 0 0 0 1-.077V22.06a1.363 1.363 0 0 1 1.37-1.609zm-5.285-1.838zm5.438-.843z" class="cls-1"/>
</svg>
