<svg xmlns="http://www.w3.org/2000/svg" viewBox="0 0 35 29">
    <defs>
        <style>
            .cls-1{fill:#fff}
        </style>
    </defs>
    <path id="icon_tw" d="M11.348 29.1A19.792 19.792 0 0 1 .4 25.772a.917.917 0 0 1-.313-.951.785.785 0 0 1 .86-.475 9.334 9.334 0 0 0 1.485.079 12.978 12.978 0 0 0 6.41-1.743 7.621 7.621 0 0 1-5.081-5.071.987.987 0 0 1 .156-.792.471.471 0 0 1 .469-.238A7.8 7.8 0 0 1 1.343 10.4a.835.835 0 0 1 .391-.713.914.914 0 0 1 .782-.079c.078 0 .156.079.235.079a6.492 6.492 0 0 1-1.329-4.12 7.584 7.584 0 0 1 1.015-3.882.8.8 0 0 1 .625-.4.844.844 0 0 1 .7.317A18.711 18.711 0 0 0 16.429 8.5v-.714a7.554 7.554 0 0 1 12.82-5.546A11.619 11.619 0 0 0 32.923.734a.693.693 0 0 1 .86.079.757.757 0 0 1 .235.872A8.359 8.359 0 0 1 32.923 3.9a8.694 8.694 0 0 0 1.016-.4.74.74 0 0 1 .938.238.84.84 0 0 1 .078.951 13.85 13.85 0 0 1-3.283 3.486v.475c-.078 9.991-7.661 20.45-20.324 20.45zm-7.426-3.09a18.392 18.392 0 0 0 7.426 1.585c11.725 0 18.682-9.667 18.682-19.016v-.793a.815.815 0 0 1 .313-.792 12.8 12.8 0 0 0 1.563-1.347 10.655 10.655 0 0 1-1.563.238.76.76 0 0 1-.86-.555.917.917 0 0 1 .313-.951 6.433 6.433 0 0 0 1.563-1.347 13.234 13.234 0 0 1-2.345.713.782.782 0 0 1-.7-.238 5.919 5.919 0 0 0-4.377-1.9 6.063 6.063 0 0 0-6.019 6.1 11.28 11.28 0 0 0 .156 1.426.817.817 0 0 1-.156.713.96.96 0 0 1-.625.317A20.455 20.455 0 0 1 3.3 3.507a6.61 6.61 0 0 0-.313 2.06 6.373 6.373 0 0 0 2.658 5.15.757.757 0 0 1 .313.872.778.778 0 0 1-.782.555 6.7 6.7 0 0 1-2.189-.4 6.147 6.147 0 0 0 4.768 4.833.769.769 0 0 1 .625.792.786.786 0 0 1-.547.792 8.606 8.606 0 0 1-2.113.239 5.815 5.815 0 0 0 5.159 3.09.753.753 0 0 1 .7.555.9.9 0 0 1-.235.872 14.142 14.142 0 0 1-7.422 3.093z" class="cls-1" transform="translate(-.064 -.1)"/>
</svg>
