<svg xmlns="http://www.w3.org/2000/svg" viewBox="0 0 35 35">
    <defs>
        <style>
            .cls-1{fill:#fff}
        </style>
    </defs>
    <path id="icon_fb" d="M18.667 35H1.944A1.926 1.926 0 0 1 0 33.056V1.944A1.926 1.926 0 0 1 1.944 0h31.112A1.926 1.926 0 0 1 35 1.944v31.112A1.926 1.926 0 0 1 33.056 35h-8.945V21.389h4.511l.7-5.289h-5.211v-3.344c0-1.556.389-2.567 2.644-2.567h2.8V5.522a31.154 31.154 0 0 0-4.044-.233c-4.044 0-6.767 2.489-6.767 7v3.889h-4.588v5.289h4.511zm-1.556-1.556v-10.5h-3.033a1.56 1.56 0 0 1-1.556-1.556V16.1a1.56 1.56 0 0 1 1.556-1.556h3.033v-2.333c0-5.211 3.267-8.556 8.322-8.556a38.736 38.736 0 0 1 4.278.233 1.524 1.524 0 0 1 1.322 1.556v4.744a1.56 1.56 0 0 1-1.556 1.556h-2.8c-.778 0-.933.156-.933.156s-.156.156-.156.856v1.789h3.656a1.4 1.4 0 0 1 1.167.544 1.435 1.435 0 0 1 .389 1.244l-.7 5.289a1.524 1.524 0 0 1-1.556 1.322h-2.877v10.423h7.389a.367.367 0 0 0 .389-.389V1.867a.367.367 0 0 0-.389-.389H1.944a.493.493 0 0 0-.389.467v31.111a.417.417 0 0 0 .389.389h15.167" class="cls-1"/>
</svg>
