<svg xmlns="http://www.w3.org/2000/svg" viewBox="0 0 40 58">
    <defs>
        <style>
            .cls-1{fill: #d6171a}
        </style>
    </defs>
    <path id="Path_546" d="M38.459 12.08a20.128 20.128 0 0 0-4.285-6.242 20.423 20.423 0 0 0-6.325-4.228A20.439 20.439 0 0 0 20.1.1a18.769 18.769 0 0 0-7.855 1.409A20.469 20.469 0 0 0 1.53 12.08 19.712 19.712 0 0 0 0 19.731a34.934 34.934 0 0 0 3.06 13.39A73.637 73.637 0 0 0 9.793 45.3a130.74 130.74 0 0 0 9.793 12.383l.408.4.408-.4A103.068 103.068 0 0 0 30.2 45.3a73.637 73.637 0 0 0 6.733-12.181 34.933 34.933 0 0 0 3.06-13.389 18.018 18.018 0 0 0-1.534-7.65zm-18.464 15.4a7.45 7.45 0 1 1 7.549-7.45 7.483 7.483 0 0 1-7.55 7.453z" className="cls-1" data-name="Path 546" transform="translate(0 -.088)"/>
</svg>
